<svg id="Ebene_1" data-name="Ebene 1" xmlns="http://www.w3.org/2000/svg" viewBox="0 0 190.94 208.91">
  <g>
    <path class="cls-1" d="M19.12,61.53c31.15-8.69,45.36-3.41,52.58,3.09C81,73,78.78,83.36,89,88.85c13.29,7.16,24.42-6.56,40.46-1.55,14.11,4.4,26,21.41,26,36.6,0,30-46.35,43.59-42.26,58,3.83,13.49,50.26,21.6,63.4,4.12C197,158.91,124.35,87.54,147,57.92c10.8-14.16,36.37-9.64,36.6-15C184,33.17,96.48,27.12,96.7,20.8,96.91,15,172.41-4.3,200.31,30.86c12.24,15.43,8.93,37.69,2.32,82.21-8.21,55.24-12.31,82.86-32.22,96.14-27.12,18.08-72.65,7.47-112.88-22.43" transform="translate(-18.44 -9.69)"/>
    <path d="M19.26,62C30.53,58.91,42.65,56.41,54.39,58c6.48.85,12.85,3.19,17.56,7.85,4.13,4.1,5.9,9.4,8.37,14.51,2.32,4.79,5.91,8.53,11,10.26,9.94,3.36,19.55-3.38,29.41-3.82C132.83,86.2,143.11,95,149,104.83c5.32,8.88,7.6,19.73,3.75,29.6-6,15.43-21.58,23.83-33.26,34.4-3.42,3.1-8.17,7.58-7.13,12.73,1.16,5.81,8.33,9.09,13.24,10.94a67.07,67.07,0,0,0,25.22,4c7.87-.21,16.5-1.73,22.85-6.7,10.67-8.36,7.5-22.93,3.53-33.95-5.72-15.86-14.44-30.51-21.8-45.62A161.71,161.71,0,0,1,146,87.59c-1.94-6.3-3.38-13.08-2.41-19.69A21.6,21.6,0,0,1,156.2,51.39a49.81,49.81,0,0,1,13.23-3.76c3.54-.59,7.16-.88,10.65-1.72,1.57-.37,4.25-1.11,4.21-3.16,0-1.24-1.15-2.16-2.1-2.78-4-2.59-9.12-3.63-13.65-4.7-14.78-3.5-29.91-5.47-44.88-7.93-6.27-1-12.58-2-18.77-3.53a36.06,36.06,0,0,1-5.59-1.7,5.49,5.49,0,0,1-1.48-.82.92.92,0,0,1-.38-.57,1.31,1.31,0,0,1,.47-.67,7.73,7.73,0,0,1,1.57-1,36.08,36.08,0,0,1,5.84-2.37,113.3,113.3,0,0,1,19.6-4.37c17-2.42,35.33-2.44,51.73,3.32,8.09,2.84,15.7,7.28,21.45,13.73a37.49,37.49,0,0,1,8.83,18.92c1.51,8.91.9,18.13,0,27.08-1.26,13.12-3.34,26.16-5.27,39.2s-3.81,25.95-6.17,38.85a198,198,0,0,1-6.87,28.34c-2.33,6.83-5.38,13.55-10,19.18a43.28,43.28,0,0,1-18.85,13c-9.88,3.62-20.65,4.19-31,3.05a122.81,122.81,0,0,1-35.41-9.94,181.17,181.17,0,0,1-35.31-20.7c-.53-.4-1.79.35-1.11.85,20.89,15.49,45.67,28.19,71.86,30.93,17.79,1.86,37.85-1.61,50.16-15.7,4.71-5.4,7.93-11.92,10.37-18.62a176.86,176.86,0,0,0,7-27.47c2.4-12.54,4.25-25.17,6.13-37.79,2-13.5,4.17-27,5.61-40.58,1.67-15.58,3.28-34-7-47.2-10.87-14-29.07-19.31-46-20.67A134.41,134.41,0,0,0,108,14.71a60.11,60.11,0,0,0-7.24,2.5,13.69,13.69,0,0,0-4,2.28c-2.35,2.17,1.31,3.55,3,4.14a107.84,107.84,0,0,0,15.62,3.49c7.53,1.33,15.08,2.49,22.63,3.71,7.73,1.24,15.45,2.5,23.12,4,5.73,1.16,11.63,2.32,17.06,4.55,1.63.66,7,3.36,3.2,5-2.94,1.23-6.49,1.33-9.61,1.79A67.09,67.09,0,0,0,159,49.11c-7.37,2.64-13.77,7.69-16.07,15.39-1.81,6.06-1.12,12.59.33,18.65a118.45,118.45,0,0,0,8.26,22.29c3.68,8,7.75,15.73,11.74,23.54,3.85,7.53,7.68,15.09,10.85,22.93,2.59,6.4,5,13.19,5.38,20.13.35,5.77-1,11.58-5.21,15.73-5.85,5.74-14.87,7.36-22.75,7.64A64.89,64.89,0,0,1,126,191.33c-4.63-1.8-12.28-5.35-12.29-11.31,0-2.36,1.27-4.49,2.69-6.27a47.9,47.9,0,0,1,7-6.77c6.18-5.13,12.71-9.83,18.52-15.41s11.25-12.4,13.35-20.48c2.71-10.4-.89-21.49-7-30-6.54-9.15-16.77-16.31-28.43-15.36-9.89.8-20.06,7.79-29.85,3C84.6,86,82.23,81.09,79.94,75.82c-2-4.74-4.56-9.11-8.61-12.43-5.16-4.2-11.75-6.12-18.28-6.73C41.6,55.61,30,58,19,61c-.9.25-.63,1.28.27,1Z" transform="translate(-18.44 -9.69)"/>
  </g>
</svg>
